<?xml version="1.0" encoding="utf-8"?>
<!DOCTYPE svg PUBLIC "-//W3C//DTD SVG 1.1//EN" "http://www.w3.org/Graphics/SVG/1.1/DTD/svg11.dtd">
<svg version="1.1" id="Layer_1" xmlns="http://www.w3.org/2000/svg" xmlns:xlink="http://www.w3.org/1999/xlink" x="0px" y="0px"
	 viewBox="0 0 1024 750" enable-background="new 0 0 1024 750" xml:space="preserve">
<g>
	<path fill="#935031" d="M0,0h63c0,11.7,0,23.3,0,35c-21,0-42,0-63,0V0z"/>
	<path fill="#935031" d="M910,0h114v35c-38,0-76,0-114,0C910,23.3,910,11.7,910,0z"/>
	<path fill="#935031" d="M420,42c44.3,0,88.7,0,133,0c0,11.7,0,23.3,0,35c-44.3,0-88.7,0-133,0C420,65.3,420,53.7,420,42z"/>
	<path fill="#935031" d="M0,84c21,0,42,0,63,0c0,11.7,0,23.3,0,35c-21,0-42,0-63,0V84z"/>
	<path fill="#935031" d="M70,84c44.3,0,88.7,0,133,0c0,11.7,0,23.3,0,35c-44.3,0-88.7,0-133,0C70,107.3,70,95.7,70,84z"/>
	<path fill="#935031" d="M70,168c44.3,0,88.7,0,133,0c0,11.7,0,23.3,0,35c-44.3,0-88.7,0-133,0C70,191.3,70,179.7,70,168z"/>
	<path fill="#935031" d="M910,168c38,0,76,0,114,0v35c-38,0-76,0-114,0C910,191.3,910,179.7,910,168z"/>
	<path fill="#935031" d="M140,210c44.3,0,88.7,0,133,0c0,11.7,0,23.3,0,35c-44.3,0-88.7,0-133,0C140,233.3,140,221.7,140,210z"/>
	<path fill="#935031" d="M420,210c44.3,0,88.7,0,133,0c0,11.6,0,23.3,0,35c-44.3,0-88.7,0-133,0C420,233.3,420,221.7,420,210z"/>
	<path fill="#935031" d="M0,336c21,0,42,0,63,0c0,11.7,0,23.3,0,35c-21,0-42,0-63,0V336z"/>
	<path fill="#935031" d="M700,378c44.3,0,88.7,0,133,0c0,11.7,0,23.3,0,35c-44.3,0-88.7,0-133,0C700,401.3,700,389.7,700,378z"/>
	<path fill="#935031" d="M840,378c44.3,0,88.7,0,133,0c0,11.7,0,23.3,0,35c-44.3,0-88.7,0-133,0C840,401.3,840,389.7,840,378z"/>
	<path fill="#935031" d="M630,420c44.3,0,88.7,0,133,0c0,11.7,0,23.3,0,35c-44.3,0-88.7,0-133,0C630,443.3,630,431.7,630,420z"/>
	<path fill="#935031" d="M140,462c44.3,0,88.7,0,133,0c0,11.7,0,23.3,0,35c-44.3,0-88.7,0-133,0C140,485.3,140,473.7,140,462z"/>
	<path fill="#935031" d="M280,462c44.3,0,88.7,0,133,0c0,11.7,0,23.3,0,35c-44.3,0-88.7,0-133,0C280,485.3,280,473.7,280,462z"/>
	<path fill="#935031" d="M560,462c44.3,0,88.7,0,133,0c0,11.7,0,23.3,0,35c-44.3,0-88.7,0-133,0C560,485.3,560,473.7,560,462z"/>
	<path fill="#935031" d="M980,462c14.7,0,29.3,0,44,0v35c-14.7,0-29.3,0-44,0C980,485.3,980,473.7,980,462z"/>
	<path fill="#935031" d="M350,504c44.3,0,88.7,0,133,0c0,11.7,0,23.3,0,35c-44.3,0-88.7,0-133,0C350,527.3,350,515.7,350,504z"/>
	<path fill="#935031" d="M350,588c44.3,0,88.7,0,133,0c0,11.7,0,23.3,0,35c-44.3,0-88.7,0-133,0C350,611.3,350,599.7,350,588z"/>
	<path fill="#935031" d="M0,630c44.3,0,88.7,0,133,0c0.1,11.7,0,23.3,0,35c-44.3,0-88.7,0-133,0V630z"/>
	<path fill="#935031" d="M140,630c44.3,0,88.7,0,133,0c0,11.7,0,23.3,0,35c-44.3,0-88.7,0-133,0C140,653.3,140,641.7,140,630z"/>
	<path fill="#935031" d="M700,630c44.3,0,88.7,0,133,0c0,11.7,0,23.3,0,35c-44.3,0-88.7,0-133,0C700,653.3,700,641.7,700,630z"/>
	<path fill="#935031" d="M840,630c44.3,0,88.6,0,133,0c0,11.7,0,23.3,0,35c-44.3,0-88.7,0-133,0C840,653.3,840,641.7,840,630z"/>
	<path fill="#935031" d="M980,630c14.7,0,29.3,0,44,0v35c-14.7,0-29.3,0-44,0C980,653.3,980,641.7,980,630z"/>
	<path fill="#935031" d="M0,672c21,0,42,0,63,0c0,11.7,0,23.3,0,35c-21,0-42,0-63,0V672z"/>
	<path fill="#935031" d="M70,672c44.3,0,88.7,0,133,0c0,11.7,0,23.3,0,35c-44.3,0-88.7,0-133,0C70,695.3,70,683.7,70,672z"/>
	<path fill="#935031" d="M0,714c44.3,0,88.7,0,133,0c0,11.7,0,23.3,0,35c-44.3,0-88.7,0-133,0V714z"/>
	<path fill="#000" d="M63,0h7c0,11.7,0,23.3,0,35c44.3,0,88.7,0,133,0c0-11.7,0-23.3,0-35h7c0,11.7,0,23.3,0,35
		c44.3,0,88.7,0,133,0c0-11.7,0-23.3,0-35h7c0,11.7,0,23.3,0,35c44.3,0,88.7,0,133,0c0-11.7,0-23.3,0-35h7c0,11.7,0,23.3,0,35
		c44.3,0,88.7,0,133,0c0.1-11.7,0-23.3,0-35h7c0,11.7,0,23.3,0,35c44.3,0,88.7,0,133,0c0-11.7,0-23.3,0-35h7c0,11.7,0,23.3,0,35
		c44.3,0,88.7,0,133,0c0-11.7,0-23.3,0-35h7c0,11.7,0,23.3,0,35c38,0,76,0,114,0v7c-14.7,0-29.3,0-44,0c0,11.7,0,23.3,0,35
		c14.7,0,29.3,0,44,0v7c-38,0-76,0-114,0c0,11.7,0,23.3,0,35c38,0,76,0,114,0v7c-14.7,0-29.3,0-44,0c0,11.7,0,23.3,0,35
		c14.7,0,29.3,0,44,0v7c-38,0-76,0-114,0c0,11.7,0,23.3,0,35c38,0,76,0,114,0v7c-14.7,0-29.3,0-44,0c0,11.7,0,23.3,0,35
		c14.7,0,29.3,0,44,0v7c-38,0-76,0-114,0c0,11.7,0,23.3,0,35c38,0,76,0,114,0v7c-14.7,0-29.3,0-44,0c0,11.7,0,23.3,0,35
		c14.7,0,29.3,0,44,0v7c-38,0-76,0-114,0c0,11.7,0,23.3,0,35c38,0,76,0,114,0v7c-14.7,0-29.3,0-44,0c0,11.7,0,23.3,0,35
		c14.7,0,29.3,0,44,0v7c-38,0-76,0-114,0c0,11.7,0,23.3,0,35c38,0,76,0,114,0v7c-14.7,0-29.3,0-44,0c0,11.7,0,23.3,0,35
		c14.7,0,29.3,0,44,0v7c-38,0-76,0-114,0c0,11.7,0,23.3,0,35c38,0,76,0,114,0v7c-14.7,0-29.3,0-44,0c0,11.7,0,23.3,0,35
		c14.7,0,29.3,0,44,0v7c-38,0-76,0-114,0c0,11.7,0,23.3,0,35c38,0,76,0,114,0v7c-14.7,0-29.3,0-44,0c0,11.7,0,23.3,0,35
		c14.7,0,29.3,0,44,0v7c-38,0-76,0-114,0c0,11.7,0,23.3,0,35c38,0,76,0,114,0v7c-14.7,0-29.3,0-44,0c0,11.7,0,23.3,0,35
		c14.7,0.1,29.3,0,44,0v1H0v-1c44.3,0,88.7,0,133,0c0-11.7,0-23.3,0-35c-44.3,0-88.7,0-133,0v-7c21,0,42,0,63,0c0-11.7,0-23.3,0-35
		c-21,0-42,0-63,0v-7c44.3,0,88.7,0,133,0c0-11.7,0-23.3,0-35c-44.3,0-88.6,0-133,0v-7c21,0,42,0,63,0c0-11.7,0-23.3,0-35
		c-21,0-42,0-63,0v-7c44.3,0,88.7,0,133,0c0-11.7,0-23.3,0-35c-44.3,0-88.7,0-133,0v-7c21,0,42,0,63,0c0-11.7,0-23.3,0-35
		c-21,0-42,0-63,0v-7c44.3,0,88.7,0,133,0c0-11.7,0-23.3,0-35c-44.3,0-88.7,0-133,0v-7c21,0,42,0,63,0c0-11.7,0-23.3,0-35
		c-21-0.1-42,0-63,0v-7c44.3,0,88.7,0,133,0c0-11.7,0-23.3,0-35c-44.3,0-88.7,0-133,0v-7c21,0,42,0,63,0c0-11.7,0-23.3,0-35
		c-21,0-42,0-63,0v-7c44.3,0,88.7,0,133,0c0-11.7,0-23.3,0-35c-44.3,0-88.6,0-133,0v-7c21,0,42,0,63,0c0-11.7,0-23.3,0-35
		c-21,0-42,0-63,0v-7c44.3,0,88.7,0,133,0c0-11.7,0-23.3,0-35c-44.3,0-88.7,0-133,0v-7c21,0,42,0,63,0c0-11.7,0-23.3,0-35
		c-21,0-42,0-63,0v-7c44.3,0,88.7,0,133,0c0-11.7,0-23.3,0-35c-44.3,0-88.7,0-133,0v-7c21,0,42,0,63,0c0-11.7,0-23.3,0-35
		c-21,0-42,0-63,0v-7c44.3,0,88.7,0,133,0c0-11.7,0-23.3,0-35c-44.3,0-88.7,0-133,0v-7c21,0,42,0,63,0C63,23.3,63,11.7,63,0 M140,42
		c0,11.7,0,23.3,0,35c44.3,0,88.7,0,133,0c0-11.7,0-23.3,0-35C228.7,42,184.3,42,140,42 M280,42c0,11.7,0,23.3,0,35
		c44.3,0,88.6,0,133,0c0-11.7,0-23.3,0-35C368.7,42,324.3,42,280,42 M420,42c0,11.7,0,23.3,0,35c44.3,0,88.7,0,133,0
		c0-11.7,0-23.3,0-35C508.7,42,464.3,42,420,42 M560,42c0,11.7,0,23.3,0,35c44.3,0,88.7,0,133,0c0-11.7,0-23.3,0-35
		C648.7,42,604.3,42,560,42 M700,42c0,11.7,0,23.3,0,35c44.3,0,88.6,0,133,0c0-11.7,0-23.3,0-35C788.7,42,744.3,42,700,42 M840,42
		c0,11.7,0,23.3,0,35c44.3,0,88.7,0,133,0c0-11.7,0-23.3,0-35C928.7,42,884.3,42,840,42 M70,84c0,11.7,0,23.3,0,35
		c44.3,0,88.7,0,133,0c0-11.7,0-23.3,0-35C158.7,84,114.3,84,70,84 M210,84c0,11.7,0,23.3,0,35c44.3,0,88.7,0,133,0
		c0-11.7,0-23.3,0-35C298.7,84,254.3,84,210,84 M350,84c0,11.7,0,23.3,0,35c44.3,0,88.7,0,133,0c0-11.7,0-23.3,0-35
		C438.7,84,394.3,84,350,84 M490,84c0,11.7,0,23.3,0,35c44.3,0,88.7,0,133,0c0-11.7,0-23.3,0-35C578.7,84,534.3,84,490,84 M630,84
		c0,11.7,0,23.3,0,35c44.3,0,88.7,0,133,0c0-11.7,0-23.4,0-35C718.7,84,674.3,84,630,84 M770,84c0,11.7,0,23.3,0,35
		c44.3,0,88.7,0,133,0c0-11.7,0-23.3,0-35C858.7,84,814.3,84,770,84 M140,126c0,11.7,0,23.3,0,35c44.3,0,88.7,0,133,0
		c0-11.7,0-23.3,0-35C228.7,126,184.4,126,140,126 M280,126c0,11.7,0,23.3,0,35c44.3,0,88.7,0,133,0c0-11.7,0-23.3,0-35
		C368.7,126,324.3,126,280,126 M420,126c0,11.7,0,23.3,0,35c44.3,0,88.7,0,133,0c0-11.7,0-23.3,0-35C508.7,126,464.3,126,420,126
		 M560,126c0,11.7,0,23.3,0,35c44.3,0,88.6,0,133,0c0-11.7,0-23.3,0-35C648.7,126,604.3,126,560,126 M700,126c0,11.7,0,23.3,0,35
		c44.3,0,88.7,0,133,0c0-11.7,0-23.3,0-35C788.7,126,744.3,126,700,126 M840,126c-0.1,11.7,0,23.3,0,35c44.3,0,88.7,0,133,0
		c0-11.7,0-23.3,0-35C928.7,126,884.3,126,840,126 M70,168c0,11.7,0,23.3,0,35c44.3,0,88.7,0,133,0c0-11.7,0-23.3,0-35
		C158.7,168,114.3,168,70,168 M210,168c0,11.7,0,23.3,0,35c44.3,0,88.7,0,133,0c0-11.7,0-23.3,0-35C298.7,168,254.3,168,210,168
		 M350,168c0,11.7,0,23.3,0,35c44.3,0,88.7,0,133,0c0-11.7,0-23.3,0-35C438.7,168,394.3,168,350,168 M490,168c0,11.7,0,23.3,0,35
		c44.3,0,88.7,0,133,0c0-11.7,0-23.3,0-35C578.7,168,534.3,168,490,168 M630,168c0,11.7,0,23.3,0,35c44.3,0,88.7,0,133,0
		c0-11.7,0-23.3,0-35C718.7,168,674.3,168,630,168 M770,168c0,11.7,0,23.3,0,35c44.3,0,88.7,0,133,0c0-11.7,0-23.3,0-35
		C858.7,168,814.3,168,770,168 M140,210c0,11.7,0,23.3,0,35c44.3,0,88.7,0,133,0c0-11.7,0-23.3,0-35C228.7,210,184.3,210,140,210
		 M280,210c0,11.7,0,23.3,0,35c44.3,0,88.7,0,133,0c0-11.7,0-23.3,0-35C368.7,210,324.3,210,280,210 M420,210c0,11.6,0,23.3,0,35
		c44.3,0,88.7,0,133,0c0-11.7,0-23.3,0-35C508.7,210,464.3,210,420,210 M560,210c0,11.7,0,23.3,0,35c44.3,0,88.7,0,133,0
		c0-11.7,0-23.3,0-35C648.7,210,604.3,210,560,210 M700,210c-0.1,11.7,0,23.3,0,35c44.3,0.1,88.7,0,133,0c0-11.7,0-23.3,0-35
		C788.7,210,744.3,210,700,210 M840,210c-0.1,11.7,0,23.3,0,35c44.3,0,88.7,0,133,0c0-11.7,0-23.3,0-35C928.7,210,884.3,210,840,210
		 M70,252c0,11.7,0,23.3,0,35c44.3,0,88.7,0,133,0c0-11.7,0-23.3,0-35C158.7,252,114.3,252,70,252 M210,252c0,11.7,0,23.3,0,35
		c44.3,0,88.7,0,133,0c0-11.7,0-23.3,0-35C298.7,252,254.3,252,210,252 M350,252c0,11.7,0,23.3,0,35c44.3,0,88.6,0,133,0
		c0-11.7,0-23.3,0-35C438.7,252,394.3,252,350,252 M490,252c0,11.7,0,23.3,0,35c44.3,0.1,88.7,0,133,0c0-11.7,0-23.3,0-35
		C578.7,252,534.3,252,490,252 M630,252c0,11.7,0,23.3,0,35c44.3,0,88.7,0,133,0c0-11.7,0-23.3,0-35C718.7,252,674.3,252,630,252
		 M770,252c0,11.7,0,23.3,0,34.9c44.3,0.1,88.7,0,133,0c0-11.7,0-23.3,0-35C858.7,252,814.3,252,770,252 M140,294
		c0,11.7,0,23.3,0,35c44.3,0,88.7,0,133,0c0-11.7,0-23.3,0-35C228.6,294,184.3,294,140,294 M280,294c0,11.7,0,23.3,0,35
		c44.3,0,88.6,0,133,0c0-11.7,0-23.3,0-35C368.7,294,324.3,294,280,294 M420,294c0,11.7,0,23.3,0,35c44.3,0,88.6,0,133,0
		c0-11.7,0-23.3,0-35C508.7,294,464.3,294,420,294 M560,294c0,11.7,0,23.3,0,35c44.3,0,88.7,0,133,0c0-11.7,0-23.3,0-35
		C648.7,294,604.3,294,560,294 M700,294c0,11.7,0,23.3,0,35c44.3,0,88.7,0,133,0c0-11.7,0-23.3,0-35C788.7,294,744.3,294,700,294
		 M840,294c0,11.7,0,23.3,0,35c44.3,0,88.7,0,133,0c0-11.7,0-23.3,0-35C928.7,294,884.3,294,840,294 M70,336c0,11.7,0,23.3,0,35
		c44.3,0,88.7,0,133,0c0-11.7,0-23.3,0-35C158.7,336,114.3,336,70,336 M210,336c0,11.7,0,23.3,0,35c44.3,0,88.7,0,133,0
		c0-11.7,0-23.3,0-35C298.7,336,254.3,336,210,336 M350,336c0,11.7,0,23.3,0,35c44.3,0,88.7,0,133,0c0-11.7,0-23.3,0-35
		C438.7,336,394.3,336,350,336 M490,336c-0.1,11.7,0,23.3,0,35c44.3,0,88.7,0,133,0c0-11.7,0-23.3,0-35C578.7,336,534.4,336,490,336
		 M630,336c0,11.7,0,23.3,0,35c44.3,0,88.7,0,133,0c0.1-11.7,0-23.3,0-35C718.7,336,674.3,336,630,336 M770,336c0,11.7,0,23.3,0,35
		c44.3,0,88.7,0,133,0c0-11.7,0-23.3,0-35C858.7,336,814.3,336,770,336 M140,378c0,11.7,0,23.3,0,35c44.3,0,88.7,0,133,0
		c0-11.7,0-23.3,0-35C228.7,378,184.3,378,140,378 M280,378c0,11.7,0,23.3,0,35c44.3,0,88.7,0,133,0c0-11.7,0-23.3,0-35
		C368.6,378,324.3,378,280,378 M420,378c0,11.7,0,23.3,0,35c44.3,0,88.6,0,133,0c0.1-11.7,0-23.3,0-35C508.7,378,464.3,378,420,378
		 M560,378c0,11.6,0,23.3,0,35c44.3,0.1,88.7,0,133,0c0-11.7,0-23.3,0-35C648.7,378,604.3,378,560,378 M700,378c0,11.7,0,23.3,0,35
		c44.3,0,88.7,0,133,0c0-11.7,0-23.3,0-35C788.7,378,744.3,378,700,378 M840,378c0,11.7,0,23.3,0,35c44.3,0,88.7,0,133,0
		c0-11.7,0-23.3,0-35C928.7,378,884.3,378,840,378 M70,420c0,11.7,0,23.3,0,35c44.3,0,88.7,0,133,0c0-11.7,0-23.3,0-35
		C158.7,420,114.3,420,70,420 M210,420c0,11.7,0,23.3,0,35c44.3,0,88.7,0,133,0c0-11.7,0-23.3,0-35C298.7,420,254.3,420,210,420
		 M350,420c0,11.7-0.1,23.3,0,35c44.3,0,88.7,0,133,0c0-11.7,0-23.3,0-35C438.7,420,394.3,420,350,420 M490,420c0,11.7,0,23.3,0,35
		c44.3,0,88.7,0,133,0c0-11.7,0-23.3,0-35C578.7,420,534.3,420,490,420 M630,420c0,11.7,0,23.3,0,35c44.3,0,88.6,0,133,0
		c0-11.7,0-23.3,0-35C718.7,420,674.3,420,630,420 M770,420c0,11.7,0,23.3,0,35c44.3,0,88.7,0,133,0c0-11.7,0-23.3,0-35
		C858.7,420,814.3,420,770,420 M140,462c0,11.7,0,23.3,0,35c44.3,0,88.7,0,133,0c0-11.7,0-23.3,0-35C228.7,462,184.3,462,140,462
		 M280,462c0,11.7,0,23.3,0,35c44.3,0,88.7,0,133,0c0-11.7,0-23.3,0-35C368.7,462,324.3,462,280,462 M420,462c0,11.7,0,23.3,0,35
		c44.3,0,88.6,0,133,0c0-11.7,0-23.3,0-35C508.7,462,464.3,462,420,462 M560,462c0,11.7,0,23.3,0,35c44.3,0,88.7,0,133,0
		c0-11.7,0-23.3,0-35C648.7,462,604.3,462,560,462 M700,462c0,11.7,0,23.3,0,35c44.3,0,88.7,0,133,0c0-11.7,0-23.3,0-35
		C788.7,462,744.3,462,700,462 M840,462c0,11.6,0,23.3,0,35c44.3,0,88.6,0,133,0c0.1-11.7,0-23.3,0-35C928.7,462,884.3,462,840,462
		 M70,504c0,11.7,0,23.3,0,35c44.3,0,88.7,0,133,0c0-11.7,0-23.3,0-35C158.7,504,114.3,504,70,504 M210,504c0,11.7,0,23.3,0,35
		c44.3,0,88.7,0,133,0c0-11.7,0-23.3,0-35C298.7,504,254.4,504,210,504 M350,504c0,11.7,0,23.3,0,35c44.3,0,88.7,0,133,0
		c0-11.7,0-23.3,0-35C438.7,504,394.3,504,350,504 M490,504c0,11.7,0,23.3,0,35c44.3,0,88.6,0,133,0c0-11.7,0-23.3,0-35
		C578.7,504,534.3,504,490,504 M630,504c0,11.7,0,23.3,0,35c44.3,0,88.7,0,133,0c0-11.7,0-23.3,0-35C718.7,504,674.3,504,630,504
		 M770,504c0,11.7,0,23.3,0,35c44.3,0,88.7,0,133,0c0-11.7,0-23.3,0-35C858.7,504,814.3,504,770,504 M140,546c0,11.7,0,23.3,0,35
		c44.3,0,88.7,0,133,0c0-11.7,0-23.3,0-35C228.7,546,184.3,546,140,546 M280,546c0,11.7,0,23.3,0,35c44.3,0,88.7,0,133,0
		c0-11.7,0-23.3,0-35C368.7,546,324.3,546,280,546 M420,546c0,11.7,0,23.3,0,35c44.3,0,88.6,0,133,0c0-11.7,0-23.3,0-35
		C508.7,546,464.3,546,420,546 M560,546c0,11.7,0,23.3,0,35c44.3,0,88.6,0,133,0c0-11.7,0-23.3,0-35C648.7,546,604.3,546,560,546
		 M700,546c0,11.7,0,23.3,0,35c44.3,0,88.7,0,133,0c0-11.7,0-23.3,0-35C788.7,546,744.3,546,700,546 M840,546c0,11.7,0,23.3,0,35
		c44.3,0,88.6,0,133,0c0-11.7,0-23.3,0-35C928.7,546,884.3,546,840,546 M70,588c0,11.7,0,23.3,0,35c44.3,0,88.7,0,133,0
		c0-11.7,0-23.3,0-35C158.7,588,114.3,588,70,588 M210,588c0,11.7,0,23.3,0,35c44.3,0,88.7,0,133,0c0-11.7,0-23.3,0-35
		C298.7,588,254.3,588,210,588 M350,588c0,11.7,0,23.3,0,35c44.3,0,88.7,0,133,0c0-11.7,0-23.3,0-35C438.7,588,394.3,588,350,588
		 M490,588c0,11.7,0,23.3,0,35c44.3,0,88.7,0,133,0c0-11.7,0-23.3,0-35C578.7,588,534.3,588,490,588 M630,588c0,11.7,0,23.3,0,35
		c44.3,0,88.7,0,133,0c0-11.7,0-23.3,0-35C718.7,588,674.3,588,630,588 M770,588c0,11.7,0,23.3,0,35c44.3,0,88.7,0,133,0
		c0-11.7,0-23.3,0-35C858.7,588,814.3,588,770,588 M140,630c0,11.7,0,23.3,0,35c44.3,0,88.7,0,133,0c0-11.7,0-23.3,0-35
		C228.7,630,184.3,630,140,630 M280,630c0,11.7,0,23.3,0,35c44.3,0,88.7,0,133,0c0-11.6,0-23.3,0-35C368.7,630,324.3,630,280,630
		 M420,630c0,11.7,0,23.3,0,35c44.3,0,88.7,0,133,0c0-11.7,0-23.3,0-35C508.6,630,464.3,630,420,630 M560,630c0,11.7,0,23.3,0,35
		c44.3,0,88.7,0,133,0c0-11.7,0-23.3,0-35C648.7,630,604.3,630,560,630 M700,630c0,11.7,0,23.3,0,35c44.3,0,88.7,0,133,0
		c0-11.7,0-23.3,0-35C788.7,630,744.3,630,700,630 M840,630c0,11.7,0,23.3,0,35c44.3,0,88.7,0,133,0c0-11.7,0-23.3,0-35
		C928.7,630,884.3,630,840,630 M70,672c0,11.7,0,23.3,0,35c44.3,0,88.7,0,133,0c0-11.7,0-23.3,0-35C158.7,672,114.3,672,70,672
		 M210,672c0,11.7,0,23.3,0,35c44.3,0,88.7,0,133,0c0-11.7,0-23.3,0-35C298.7,672,254.3,672,210,672 M350,672c0,11.7,0,23.3,0,35
		c44.3,0,88.6,0,133,0c0-11.7,0-23.3,0-35C438.7,672,394.3,672,350,672 M490,672c0,11.7,0,23.4,0,35c44.3,0,88.7,0,133,0
		c0-11.7,0-23.3,0-35C578.7,672,534.3,672,490,672 M630,672c0,11.7,0,23.3,0,35c44.3,0,88.7,0,133,0c0-11.7,0-23.3,0-35
		C718.7,672,674.3,672,630,672 M770,672c0,11.7,0,23.3,0,35c44.3,0,88.6,0,133,0c0-11.7,0-23.3,0-35C858.7,672,814.3,672,770,672
		 M140,714c0,11.7,0,23.4,0,35.1c44.3,0,88.7-0.1,133,0c0-11.7,0-23.4,0-35.1C228.7,714,184.3,714,140,714 M280,714
		c0,11.7,0,23.3,0,35c44.3,0,88.7,0.1,133,0c0-11.7,0-23.3,0-35C368.7,714,324.4,714,280,714 M420,714c0,11.7,0,23.3,0,35
		c44.3,0,88.7,0.1,133,0c0-11.7,0-23.3,0-35C508.7,714,464.3,714,420,714 M560,714c0,11.7,0,23.4,0,35.1c44.3-0.3,88.7,0.1,133-0.1
		c0-11.7,0-23.3,0-35C648.7,714,604.3,714,560,714 M700,714c0,11.7,0,23.3,0,35c44.3,0.1,88.6,0.1,133,0c0-11.7,0-23.3,0-35
		C788.7,714,744.3,714,700,714 M840,714c0,11.7,0,23.4,0,35.1c44.3,0,88.7-0.1,133,0.1c0-11.7,0-23.4,0-35.1
		C928.7,714,884.3,714,840,714z"/>
	<path fill="#7E452A" d="M70,0h133c-0.1,11.7,0,23.3,0,35c-44.3,0-88.7,0-133,0C70,23.3,70,11.7,70,0z"/>
	<path fill="#7E452A" d="M350,0h133c0,11.7,0,23.3,0,35c-44.3,0-88.7,0-133,0C350,23.3,350,11.7,350,0z"/>
	<path fill="#7E452A" d="M140,42c44.3,0,88.7,0,133,0c0,11.7,0,23.3,0,35c-44.3,0-88.7,0-133,0C140,65.3,140,53.7,140,42z"/>
	<path fill="#7E452A" d="M280,42c44.3,0,88.7,0,133,0c0,11.7,0,23.3,0,35c-44.3,0-88.6,0-133,0C280,65.3,280,53.7,280,42z"/>
	<path fill="#7E452A" d="M700,42c44.3,0,88.7,0,133,0c0,11.7,0,23.3,0,35c-44.3,0-88.6,0-133,0C700,65.3,700,53.7,700,42z"/>
	<path fill="#7E452A" d="M210,84c44.3,0,88.7,0,133,0c0,11.7,0,23.3,0,35c-44.3,0-88.6,0-133,0C210,107.3,210,95.7,210,84z"/>
	<path fill="#7E452A" d="M350,84c44.3,0,88.7,0,133,0c0,11.7,0,23.3,0,35c-44.3,0-88.7,0-133,0C350,107.3,350,95.7,350,84z"/>
	<path fill="#7E452A" d="M280,126c44.3,0,88.7,0,133,0c0,11.7,0,23.3,0,35c-44.3,0-88.7,0-133,0C280,149.3,280,137.7,280,126z"/>
	<path fill="#7E452A" d="M420,126c44.3,0,88.7,0,133,0c0,11.7,0,23.3,0,35c-44.3,0-88.7,0-133,0C420,149.3,420,137.7,420,126z"/>
	<path fill="#7E452A" d="M700,126c44.3,0,88.7,0,133,0c0,11.7,0,23.3,0,35c-44.3,0-88.7,0-133,0C700,149.3,700,137.7,700,126z"/>
	<path fill="#7E452A" d="M980,126c14.7,0,29.3,0,44,0v35c-14.7,0-29.3,0-44,0C980,149.3,980,137.7,980,126z"/>
	<path fill="#7E452A" d="M0,168c21,0,42,0,63,0c0,11.7,0,23.3,0,35c-21,0-42,0-63,0V168z"/>
	<path fill="#7E452A" d="M210,168c44.3,0,88.7,0,133,0c0,11.7,0,23.3,0,35c-44.3,0-88.7,0-133,0C210,191.3,210,179.7,210,168z"/>
	<path fill="#7E452A" d="M630,168c44.3,0,88.7,0,133,0c0,11.7,0,23.3,0,35c-44.3,0-88.7,0-133,0C630,191.3,630,179.7,630,168z"/>
	<path fill="#7E452A" d="M280,210c44.3,0,88.7,0,133,0c0,11.7,0,23.3,0,35c-44.3,0-88.7,0-133,0C280,233.3,280,221.7,280,210z"/>
	<path fill="#7E452A" d="M560,210c44.3,0,88.7,0,133,0c0,11.7,0,23.3,0,35c-44.3,0-88.7,0-133,0C560,233.3,560,221.7,560,210z"/>
	<path fill="#7E452A" d="M630,252c44.3,0,88.7,0,133,0c0,11.7,0,23.3,0,35c-44.3,0-88.7,0-133,0C630,275.3,630,263.7,630,252z"/>
	<path fill="#7E452A" d="M420,294c44.3,0,88.7,0,133,0c0,11.7,0,23.3,0,35c-44.3,0-88.6,0-133,0C420,317.3,420,305.7,420,294z"/>
	<path fill="#7E452A" d="M700,294c44.3,0,88.7,0,133,0c0,11.7,0,23.3,0,35c-44.3,0-88.7,0-133,0C700,317.3,700,305.7,700,294z"/>
	<path fill="#7E452A" d="M210,336c44.3,0,88.7,0,133,0c0,11.7,0,23.3,0,35c-44.3,0-88.7,0-133,0C210,359.3,210,347.7,210,336z"/>
	<path fill="#7E452A" d="M140,378c44.3,0,88.7,0,133,0c0,11.7,0,23.3,0,35c-44.3,0-88.7,0-133,0C140,401.3,140,389.7,140,378z"/>
	<path fill="#7E452A" d="M280,378c44.3,0,88.6,0,133,0c0,11.7,0,23.3,0,35c-44.3,0-88.7,0-133,0C280,401.3,280,389.7,280,378z"/>
	<path fill="#7E452A" d="M490,420c44.3,0,88.7,0,133,0c0,11.7,0,23.3,0,35c-44.3,0-88.7,0-133,0C490,443.3,490,431.7,490,420z"/>
	<path fill="#7E452A" d="M770,420c44.3,0,88.7,0,133,0c0,11.7,0,23.3,0,35c-44.3,0-88.7,0-133,0C770,443.3,770,431.7,770,420z"/>
	<path fill="#7E452A" d="M700,462c44.3,0,88.7,0,133,0c0,11.7,0,23.3,0,35c-44.3,0-88.7,0-133,0C700,485.3,700,473.7,700,462z"/>
	<path fill="#7E452A" d="M910,504c38,0,76,0,114,0v35c-38,0-76,0-114,0C910,527.3,910,515.7,910,504z"/>
	<path fill="#7E452A" d="M140,546c44.3,0,88.7,0,133,0c0,11.7,0,23.3,0,35c-44.3,0-88.7,0-133,0C140,569.3,140,557.7,140,546z"/>
	<path fill="#7E452A" d="M420,546c44.3,0,88.7,0,133,0c0,11.7,0,23.3,0,35c-44.3,0-88.6,0-133,0C420,569.3,420,557.7,420,546z"/>
	<path fill="#7E452A" d="M700,546c44.3,0,88.7,0,133,0c0,11.7,0,23.3,0,35c-44.3,0-88.7,0-133,0C700,569.3,700,557.7,700,546z"/>
	<path fill="#7E452A" d="M770,588c44.3,0,88.7,0,133,0c0,11.7,0,23.3,0,35c-44.3,0-88.6,0-133,0C770,611.3,770,599.7,770,588z"/>
	<path fill="#7E452A" d="M770,672c44.3,0,88.7,0,133,0c0,11.7,0,23.3,0,35c-44.3,0-88.7,0-133,0C770,695.3,770,683.7,770,672z"/>
	<path fill="#7E452A" d="M140,714c44.3,0,88.7,0,133,0c0,11.7,0,23.4,0,35.1c-44.3-0.2-88.7,0-133,0C140,737.4,140,725.7,140,714z"
		/>
	<path fill="#693923" d="M210,0h133c0,11.7,0,23.3,0,35c-44.3,0-88.7,0-133,0C210,23.3,210,11.7,210,0z"/>
	<path fill="#693923" d="M770,0h133c0,11.7,0,23.3,0,35c-44.3,0-88.7,0-133,0C770,23.3,770,11.7,770,0z"/>
	<path fill="#693923" d="M770,84c44.3,0,88.7,0,133,0c0,11.7,0,23.3,0,35c-44.3,0-88.7,0-133,0C770,107.3,770,95.7,770,84z"/>
	<path fill="#693923" d="M0,210c44.3,0,88.7,0,133,0c0,11.7,0,23.3,0,35c-44.3,0-88.7,0-133,0V210z"/>
	<path fill="#693923" d="M0,252c21,0,42,0,63,0c0,11.7,0,23.3,0,35c-21,0-42,0-63,0V252z"/>
	<path fill="#693923" d="M70,252c44.3,0,88.7,0,133,0c0,11.7,0,23.3,0,35c-44.3,0-88.7,0-133,0C70,275.3,70,263.7,70,252z"/>
	<path fill="#693923" d="M350,336c44.3,0,88.7,0,133,0c0,11.7,0,23.3,0,35c-44.3,0-88.7,0-133,0C350,359.3,350,347.7,350,336z"/>
	<path fill="#693923" d="M770,336c44.3,0,88.7,0,133,0c0,11.7,0,23.3,0,35c-44.3,0-88.7,0-133,0C770,359.3,770,347.7,770,336z"/>
	<path fill="#693923" d="M910,336c38,0,76,0,114,0v35c-38,0-76,0-114,0C910,359.3,910,347.7,910,336z"/>
	<path fill="#693923" d="M0,462c44.3,0,88.7,0,133,0c0,11.7,0,23.3,0,35c-44.3,0-88.7,0-133,0V462z"/>
	<path fill="#693923" d="M0,504c21,0,42,0,63,0c0,11.7,0,23.3,0,35c-21,0-42,0-63,0V504z"/>
	<path fill="#693923" d="M630,504c44.3,0,88.7,0,133,0c0,11.7,0,23.3,0,35c-44.3,0-88.7,0-133,0C630,527.3,630,515.7,630,504z"/>
	<path fill="#693923" d="M0,546c44.3,0,88.7,0,133,0c0,11.7,0,23.3,0,35c-44.3,0-88.7,0-133,0V546z"/>
	<path fill="#693923" d="M280,546c44.3,0,88.7,0,133,0c0,11.7,0,23.3,0,35c-44.3,0-88.7,0-133,0C280,569.3,280,557.7,280,546z"/>
	<path fill="#693923" d="M210,588c44.3,0,88.7,0,133,0c0,11.7,0,23.3,0,35c-44.3,0-88.7,0-133,0C210,611.3,210,599.7,210,588z"/>
	<path fill="#693923" d="M490,588c44.3,0,88.7,0,133,0c0,11.7,0,23.3,0,35c-44.3,0-88.7,0-133,0C490,611.3,490,599.7,490,588z"/>
	<path fill="#693923" d="M560,630c44.3,0,88.7,0,133,0c0,11.7,0,23.3,0,35c-44.3,0-88.7,0-133,0C560,653.3,560,641.7,560,630z"/>
	<path fill="#693923" d="M560,714c44.3,0,88.7,0,133,0c0,11.7,0,23.3,0,35c-44.3,0.2-88.6-0.2-133,0.1C560,737.4,560,725.7,560,714z
		"/>
	<path fill="#D37346" d="M490,0h133c0,11.7,0,23.3,0,35c-44.3,0-88.7,0-133,0C490,23.3,490,11.7,490,0z"/>
	<path fill="#D37346" d="M630,0h133c0,11.7,0,23.3,0,35c-44.3,0-88.7,0-133,0C630,23.3,630,11.7,630,0z"/>
	<path fill="#D37346" d="M490,84c44.3,0,88.7,0,133,0c0,11.7,0,23.3,0,35c-44.3,0-88.7,0-133,0C490,107.3,490,95.7,490,84z"/>
	<path fill="#D37346" d="M490,336c44.3,0,88.6,0,133,0c0,11.7,0,23.3,0,35c-44.3,0.1-88.7,0-133,0C490,359.3,489.9,347.7,490,336z"
		/>
	<path fill="#D37346" d="M350,420c44.3,0,88.7,0,133,0c0,11.6,0,23.3,0,35c-44.3,0-88.7,0-133,0C349.9,443.3,350,431.7,350,420z"/>
	<path fill="#D37346" d="M280,630c44.3,0,88.7,0,133,0c0,11.6,0,23.3,0,35c-44.3,0.1-88.7,0-133,0C280,653.3,280,641.7,280,630z"/>
	<path fill="#BD673F" d="M0,42c44.3,0,88.7,0,133,0c0,11.7,0,23.3,0,35c-44.3,0-88.6,0-133,0V42z"/>
	<path fill="#BD673F" d="M840,42c44.3,0,88.7,0,133,0c0,11.7,0,23.3,0,35c-44.3,0-88.7,0-133,0C840,65.3,840,53.7,840,42z"/>
	<path fill="#BD673F" d="M980,42c14.7,0,29.3,0,44,0v35c-14.7,0-29.3,0-44,0C980,65.3,980,53.7,980,42z"/>
	<path fill="#BD673F" d="M0,126c44.3,0.1,88.7,0,133,0c0,11.7,0,23.3,0,35c-44.3,0-88.7,0-133,0V126z"/>
	<path fill="#BD673F" d="M490,168c44.3,0,88.7,0,133,0c0,11.7,0,23.3,0,35c-44.3,0-88.7,0-133,0C490,191.3,490,179.7,490,168z"/>
	<path fill="#BD673F" d="M840,210c44.3,0,88.6,0,133,0c0,11.7,0,23.3,0,35c-44.3,0-88.7,0-133,0C840,233.3,840,221.7,840,210z"/>
	<path fill="#BD673F" d="M490,252c44.3,0,88.7,0,133,0c0,11.7,0,23.3,0,35c-44.3,0-88.7,0-133,0C490,275.3,490,263.7,490,252z"/>
	<path fill="#BD673F" d="M910,252c38,0,76,0,114,0v35c-38,0-76,0-114,0C910,275.3,910,263.7,910,252z"/>
	<path fill="#BD673F" d="M0,294c44.3,0,88.7,0,133,0c0,11.7,0,23.3,0,35c-44.3,0-88.7,0-133,0V294z"/>
	<path fill="#BD673F" d="M140,294c44.3,0,88.7,0,133,0c0,11.7,0,23.3,0,35c-44.3,0-88.7,0-133,0C140,317.4,140,305.7,140,294z"/>
	<path fill="#BD673F" d="M280,294c44.3,0,88.7,0,133,0c0,11.7,0,23.3,0,35c-44.3,0-88.6,0-133,0C280,317.3,280,305.7,280,294z"/>
	<path fill="#BD673F" d="M630,336c44.3,0,88.7,0,133,0c0,11.7,0,23.3,0,35c-44.3,0-88.6,0-133,0C630,359.3,630,347.7,630,336z"/>
	<path fill="#BD673F" d="M560,378c44.3,0,88.7,0,133,0c0,11.7,0,23.3,0,35c-44.3,0-88.7,0-133,0C560,401.3,560,389.7,560,378z"/>
	<path fill="#BD673F" d="M980,378c14.7,0,29.3,0,44,0v35c-14.7,0-29.3,0-44,0C980,401.3,980,389.7,980,378z"/>
	<path fill="#BD673F" d="M210,420c44.3,0,88.7,0,133,0c0,11.7,0,23.3,0,35c-44.3,0-88.7,0-133,0C210,443.3,210,431.7,210,420z"/>
	<path fill="#BD673F" d="M910,420c38,0,76,0,114,0v35c-38,0-76,0-114,0C910,443.3,910,431.7,910,420z"/>
	<path fill="#BD673F" d="M70,504c44.3,0,88.7,0,133,0c0,11.7,0,23.3,0,35c-44.3,0.1-88.7,0-133,0C70,527.3,70,515.7,70,504z"/>
	<path fill="#BD673F" d="M560,546c44.3,0,88.7,0,133,0c0,11.7,0,23.3,0,35c-44.3,0-88.6,0-133,0C560,569.3,560,557.7,560,546z"/>
	<path fill="#BD673F" d="M980,546c14.7,0,29.3,0,44,0v35c-14.7,0.1-29.3,0-44,0C980,569.3,980,557.7,980,546z"/>
	<path fill="#BD673F" d="M0,588c21,0,42,0,63,0c0,11.7,0,23.3,0,35c-21,0-42,0-63,0V588z"/>
	<path fill="#BD673F" d="M630,588c44.3,0,88.7,0,133,0c0,11.7,0,23.3,0,35c-44.3,0-88.7,0-133,0C630,611.3,630,599.7,630,588z"/>
	<path fill="#BD673F" d="M420,630c44.3,0,88.6,0,133,0c0.1,11.7,0,23.3,0,35c-44.3,0-88.7,0-133,0C420,653.3,420,641.7,420,630z"/>
	<path fill="#BD673F" d="M350,672c44.3,0,88.7,0,133,0c0,11.7,0,23.3,0,35c-44.3,0-88.7,0-133,0C350,695.3,350,683.7,350,672z"/>
	<path fill="#BD673F" d="M630,672c44.3,0,88.7,0,133,0c0,11.7,0,23.3,0,35c-44.3,0-88.7,0-133,0C630,695.3,630,683.7,630,672z"/>
	<path fill="#BD673F" d="M910,672c38,0,76,0,114,0v35c-38,0-76,0-114,0C910,695.3,910,683.7,910,672z"/>
	<path fill="#BD673F" d="M280,714c44.3,0,88.7,0,133,0c0,11.7,0,23.3,0,35c-44.3,0.1-88.7,0.1-133,0C280,737.3,280,725.7,280,714z"
		/>
	<path fill="#BD673F" d="M420,714c44.3,0,88.7,0,133,0c0,11.7,0,23.3,0,35c-44.3,0.2-88.7,0-133,0C420,737.3,420,725.7,420,714z"/>
	<path fill="#BD673F" d="M980,714c14.7,0,29.3,0,44,0v35c-14.7,0-29.3,0-44,0C980,737.3,980,725.7,980,714z"/>
	<path fill="#A85C38" d="M560,42c44.3,0,88.6,0,133,0c0,11.7,0,23.3,0,35c-44.3,0-88.7,0-133,0C560,65.3,560,53.7,560,42z"/>
	<path fill="#A85C38" d="M630,84c44.3,0,88.6,0,133,0c0.1,11.7,0,23.3,0,35c-44.3,0-88.7,0-133,0C630,107.3,630,95.7,630,84z"/>
	<path fill="#A85C38" d="M910,84c38,0,76,0,114,0v35c-38,0-76,0-114,0C910,107.3,910,95.7,910,84z"/>
	<path fill="#A85C38" d="M140,126c44.3,0,88.6,0,133,0c0,11.7,0,23.3,0,35c-44.3,0-88.7,0-133,0C140,149.3,140,137.7,140,126z"/>
	<path fill="#A85C38" d="M560,126c44.3,0,88.7,0,133,0c0,11.7,0,23.3,0,35c-44.3,0-88.6,0-133,0C560,149.3,560,137.7,560,126z"/>
	<path fill="#A85C38" d="M840,126c44.3,0,88.6,0,133,0c0,11.7,0,23.3,0,35c-44.3,0-88.6,0-133,0C840,149.3,840,137.7,840,126z"/>
	<path fill="#A85C38" d="M350,168c44.3,0,88.7,0,133,0c0,11.7,0,23.3,0,35c-44.3,0-88.7,0-133,0C350,191.3,350,179.7,350,168z"/>
	<path fill="#A85C38" d="M770,168c44.3,0,88.7,0,133,0c0,11.7,0,23.3,0,35c-44.3,0-88.7,0-133,0C770,191.3,770,179.7,770,168z"/>
	<path fill="#A85C38" d="M700,210c44.3,0,88.6,0,133,0c0,11.7,0,23.3,0,35c-44.3,0-88.7,0-133,0C700,233.3,700,221.7,700,210z"/>
	<path fill="#A85C38" d="M980,210c14.7,0,29.3,0,44,0v35c-14.7,0-29.3,0-44,0C980,233.3,980,221.7,980,210z"/>
	<path fill="#A85C38" d="M210,252c44.3-0.1,88.7,0,133,0c0,11.7,0,23.3,0,35c-44.3,0-88.7,0-133,0C210,275.3,210,263.7,210,252z"/>
	<path fill="#A85C38" d="M350,252c44.3,0,88.7,0,133,0c0,11.7,0,23.3,0,35c-44.3,0-88.7,0-133,0C350,275.3,350,263.7,350,252z"/>
	<path fill="#A85C38" d="M770,252c44.3-0.1,88.7,0,133,0c0,11.7,0,23.3,0,35c-44.3,0-88.6,0-133,0C770,275.3,770,263.7,770,252z"/>
	<path fill="#A85C38" d="M560,294c44.3,0,88.6,0,133,0c0,11.7,0,23.3,0,35c-44.3,0-88.7,0-133,0C560,317.3,560,305.7,560,294z"/>
	<path fill="#A85C38" d="M840,294c44.3,0,88.7,0,133,0c0,11.7,0,23.3,0,35c-44.3,0-88.7,0-133,0C840,317.3,840,305.7,840,294z"/>
	<path fill="#A85C38" d="M980,294c14.7,0,29.3,0,44,0v35c-14.7,0-29.3,0-44,0C980,317.3,980,305.7,980,294z"/>
	<path fill="#A85C38" d="M70,336c44.3,0,88.7,0,133,0c0,11.7,0,23.3,0,35c-44.3,0-88.7,0-133,0C70,359.3,70,347.7,70,336z"/>
	<path fill="#A85C38" d="M0,378c44.3,0,88.7,0,133,0c0,11.7,0,23.3,0,35c-44.3,0-88.7,0-133,0V378z"/>
	<path fill="#A85C38" d="M420,378c44.3,0,88.7,0,133,0c0,11.7,0,23.3,0,35c-44.3,0-88.7,0-133,0C420,401.3,420,389.7,420,378z"/>
	<path fill="#A85C38" d="M0,420c21,0,42,0,63,0c0,11.7,0,23.3,0,35c-21,0-42,0-63,0V420z"/>
	<path fill="#A85C38" d="M70,420c44.3,0,88.7,0,133,0c0,11.7,0,23.3,0,35c-44.3,0-88.7,0-133,0C70,443.3,70,431.7,70,420z"/>
	<path fill="#A85C38" d="M420,462c44.3,0,88.7,0,133,0c0,11.7,0,23.3,0,35c-44.3,0-88.6,0-133,0C420,485.3,420,473.7,420,462z"/>
	<path fill="#A85C38" d="M840,462c44.3-0.1,88.7,0,133,0c0,11.7,0,23.3,0,35c-44.3,0-88.6,0-133,0C840,485.3,840,473.7,840,462z"/>
	<path fill="#A85C38" d="M210,504c44.3,0,88.7,0,133,0c0,11.7,0,23.3,0,35c-44.3,0-88.7,0-133,0C210,527.3,210,515.7,210,504z"/>
	<path fill="#A85C38" d="M490,504c44.3,0,88.7,0,133,0c0,11.7,0,23.3,0,35c-44.3,0-88.6,0-133,0C490,527.3,490,515.7,490,504z"/>
	<path fill="#A85C38" d="M770,504c44.3,0,88.7,0,133,0c0,11.7,0,23.3,0,35c-44.3,0-88.7,0-133,0C770,527.3,770,515.7,770,504z"/>
	<path fill="#A85C38" d="M840,546c44.3,0,88.7,0,133,0c0,11.7,0,23.3,0,35c-44.3,0-88.7,0-133,0C840,569.3,840,557.7,840,546z"/>
	<path fill="#A85C38" d="M70,588c44.3,0,88.7,0,133,0c0,11.7,0,23.3,0,35c-44.3,0-88.7,0-133,0C70,611.3,70,599.7,70,588z"/>
	<path fill="#A85C38" d="M910,588c38,0,76,0,114,0v35c-38,0-76,0-114,0C910,611.3,910,599.7,910,588z"/>
	<path fill="#A85C38" d="M210,672c44.3,0,88.7,0,133,0c0,11.7,0,23.3,0,35c-44.3,0-88.7,0-133,0C210,695.3,210,683.7,210,672z"/>
	<path fill="#A85C38" d="M490,672c44.3,0,88.7,0,133,0c0.1,11.7,0,23.3,0,35c-44.3,0-88.7,0-133,0C490,695.3,490,683.7,490,672z"/>
	<path fill="#A85C38" d="M700,714c44.3,0,88.6,0,133,0c0,11.7,0,23.3,0,35c-44.3,0.1-88.7,0.1-133,0C700,737.3,700,725.7,700,714z"
		/>
	<path fill="#A85C38" d="M840,714c44.3,0,88.6,0,133,0c0,11.7,0,23.4,0,35.1c-44.3-0.1-88.7-0.1-133-0.1
		C840,737.4,840,725.7,840,714z"/>
</g>
</svg>
